# xmcd
#
# Track frame offsets:
#	150
#	19604
#	38370
#	56718
#	79401
#	96611
#	113643
#	132754
#	148356
#	165688
#	186618
#	202681
#	222477
#
# Disc length: 3170 seconds
#
# Revision: 2
# Processed by: cddbd v1.5.2PL0 Copyright (c) Steve Scherf et al.
# Submitted via: EasyCDDAExtractor 15.3.0.1
#
DISCID=be0c600d
DTITLE=Innis - Es Por Ti
DYEAR=2001
DGENRE=Latin
TTITLE0=Eres Tu
TTITLE1=Todo Lo Que Quieras (Damelo)
TTITLE2=Es Por Ti
TTITLE3=Vueltas Y Vueltas
TTITLE4=No Se Te Olvide
TTITLE5=Di Que No Es Asi (By My Side)
TTITLE6=Si Me Das Tu Amor
TTITLE7=Atrapado
TTITLE8=El Hechizo De Tus Ojos
TTITLE9=Una Noche Loca
TTITLE10=Dejate Querer
TTITLE11=Eres Tu (Duo Con Rebecca)
TTITLE12=Mi Amor Es Un Pecado (Bonus Track De La Telenovela ''El Noveno Mandam
TTITLE12=iento'')
EXTD=
EXTT0=
EXTT1=
EXTT2=
EXTT3=
EXTT4=
EXTT5=
EXTT6=
EXTT7=
EXTT8=
EXTT9=
EXTT10=
EXTT11=
EXTT12=
PLAYORDER=
